<svg version="1.2" xmlns="http://www.w3.org/2000/svg" viewBox="0 0 1000 1000" width="1000" height="1000">
	<title>21077479_6396328-ai</title>
	<style>
		.s0 { fill: #a3caf2;stroke: #000029;stroke-miterlimit:10;stroke-width: 6 } 
		.s1 { fill: #002357 } 
		.s2 { fill: #01c4ff } 
		.s3 { fill: none;stroke: #01c4ff;stroke-linecap: round;stroke-linejoin: round;stroke-width: 6 } 
		.s4 { fill: none;stroke: #ffffff;stroke-linecap: round;stroke-linejoin: round;stroke-width: 6 } 
		.s5 { fill: none;stroke: #00001a;stroke-linecap: round;stroke-linejoin: round;stroke-width: 6 } 
		.s6 { fill: #00001a;stroke: #ffffff;stroke-linecap: round;stroke-linejoin: round;stroke-width: 6 } 
		.s7 { fill: #00001a;stroke: #ffffff;stroke-linecap: round;stroke-linejoin: round;stroke-width: 4 } 
		.s8 { fill: #ffffff;stroke: #ffffff;stroke-linecap: round;stroke-linejoin: round;stroke-width: 6 } 
		.s9 { fill: #d6d6d6;stroke: #d6d6d6;stroke-linecap: round;stroke-linejoin: round;stroke-width: 2 } 
		.s10 { fill: #00001a;stroke: #00001a;stroke-linecap: round;stroke-linejoin: round;stroke-width: 6 } 
		.s11 { fill: #f9fcff } 
	</style>
	<g id="OBJECTS">
		<g id="&lt;Group&gt;">
			<path id="&lt;Path&gt;" class="s0" d="m498.4 874.9c-1.9-0.2-46.5-3.6-100.1-28.9-49.5-23.4-116.8-70.9-155.6-163.9-17.6-42.4-26.6-88.8-26.6-137.9v-395.5l283.9 74.3 283.9-74.3v395.5c0 49.1-9 95.5-26.6 137.9-38.8 93-106.1 140.5-155.6 163.9-53.6 25.3-98.2 28.7-100.1 28.9l-1.6 0.1z"/>
			<g id="&lt;Group&gt;">
				<path id="&lt;Path&gt;" class="s1" d="m500 248.4l-261.3-68.4v366.2c0 44.4 8.1 88.6 25 129.2 69.7 167.2 236.3 178.8 236.3 178.8 0 0 166.6-11.6 236.3-178.8 16.9-40.6 25-84.8 25-129.2v-366.2z"/>
			</g>
		</g>
		<g id="&lt;Group&gt;">
			<g id="&lt;Group&gt;">
				<g id="&lt;Group&gt;">
					<path id="&lt;Path&gt;" class="s2" d="m500 154.9c-113.4 0-205.7 92.2-205.7 205.6 0 48 12.3 95.5 35.5 137.5l40.8 29.5h260.8l38.8-29.5c23.2-42 35.5-89.5 35.5-137.5 0-113.4-92.3-205.6-205.7-205.6z"/>
					<path id="&lt;Path&gt;" class="s3" d="m500 154.9c-113.4 0-205.7 92.2-205.7 205.6 0 48 12.3 95.5 35.5 137.5l40.8 29.5h260.8l38.8-29.5c23.2-42 35.5-89.5 35.5-137.5 0-113.4-92.3-205.6-205.7-205.6z"/>
				</g>
				<g id="&lt;Group&gt;">
					<g id="&lt;Group&gt;">
						<path id="&lt;Path&gt;" class="s4" d="m481.2 563.1v-147.4c0-8.8-7.2-16-16-16h-8.7c-8.9 0-16 7.2-16 16 0 8.8 7.1 16 16 16h51.3"/>
						<path id="&lt;Path&gt;" class="s4" d="m518.8 563.1v-147.4c0-8.8 7.1-16 15.9-16h8.8c8.8 0 15.9 7.2 15.9 16 0 8.8-7.1 16-15.9 16h-51.4"/>
					</g>
					<g id="&lt;Group&gt;">
						<path id="&lt;Path&gt;" class="s4" d="m385.8 334.3c-2.2 9.1-3.4 18.5-3.4 28.2"/>
						<path id="&lt;Path&gt;" class="s4" d="m474.2 247.8c-31.6 7.1-58.4 26.9-74.7 53.8"/>
					</g>
					<path id="&lt;Path&gt;" class="s5" d="m533.3 542.6c62.3-38.6 100.2-106.7 100.2-180.1 0-73.7-59.8-133.5-133.5-133.5-73.7 0-133.5 59.8-133.5 133.5 0 73.4 37.9 141.5 100.2 180.1"/>
				</g>
				<g id="&lt;Group&gt;">
					<path id="&lt;Path&gt;" class="s6" d="m224.7 427.7v26.6l262.9 115.4v-44.4c-93.6-121.1-262.9-97.6-262.9-97.6z"/>
					<path id="&lt;Path&gt;" class="s6" d="m512.4 525.3v44.4l262.9-115.4v-26.6c0 0-169.3-23.5-262.9 97.6z"/>
					<g id="&lt;Group&gt;">
						<path id="&lt;Path&gt;" class="s7" d="m487.6 538.8c-93.6-121.1-262.9-97.6-262.9-97.6"/>
						<path id="&lt;Path&gt;" class="s7" d="m775.3 441.2c0 0-169.3-23.5-262.9 97.6"/>
					</g>
					<path id="&lt;Path&gt;" class="s8" d="m222.7 454.3l45.6 198.5h217.3v-100.9c-93.6-121.1-262.9-97.6-262.9-97.6z"/>
					<path id="&lt;Path&gt;" class="s8" d="m771.3 454.3l-45.6 198.5h-217.3v-100.9c93.6-121.1 262.9-97.6 262.9-97.6z"/>
					<path id="&lt;Path&gt;" class="s6" d="m487.6 652.8v-125.3h24.8v125.3"/>
					<path id="&lt;Path&gt;" class="s9" d="m310 470.4c0 0-28.4-9.2-72.4-5.2l10.9 46.6-2.9-41.6z"/>
					<path id="&lt;Path&gt;" class="s9" d="m690 470.4c0 0 28.4-9.2 72.4-5.2l-10.9 46.6 2.9-41.6z"/>
				</g>
				<g id="&lt;Group&gt;">
					<path id="&lt;Path&gt;" class="s5" d="m500 204.9v-36.2"/>
					<path id="&lt;Path&gt;" class="s5" d="m573.7 184.4l-14.7 32.3"/>
					<path id="&lt;Path&gt;" class="s5" d="m637.2 226.6l-27.9 24.6"/>
					<path id="&lt;Path&gt;" class="s5" d="m674.7 294l-32.2 9.8"/>
					<path id="&lt;Path&gt;" class="s5" d="m681 370.8l-29.2-3.9"/>
					<path id="&lt;Path&gt;" class="s5" d="m441 216.7l-14.7-32.3"/>
					<path id="&lt;Path&gt;" class="s5" d="m390.7 251.2l-27.9-24.6"/>
					<path id="&lt;Path&gt;" class="s5" d="m357.5 303.8l-32.2-9.8"/>
					<path id="&lt;Path&gt;" class="s5" d="m348.2 366.9l-29.2 3.9"/>
				</g>
				<path id="&lt;Path&gt;" class="s10" d="m746.7 659.3c0 0-98.1-31.3-246.7-30.3-148.6-1-246.7 30.3-246.7 30.3v29.7h493.4z"/>
			</g>
			<g id="&lt;Group&gt;">
			</g>
			<path id="My Learn" class="s11" aria-label="My Learn"  d="m328.7 682l-0.4 23 0.6 20.5q0 8.1-5.7 8.1-5.7 0-5.7-8.1 0-3.1 0.3-11.3 0.4-8.1 0.4-11.9l-10.8 18.6q-2 3.7-5.1 3.7-3 0-4.9-3.6l-10.7-18.5 0.6 23.1q0 8.1-5.7 8.1-5.7 0-5.7-8.1l0.6-20.5-0.3-23q0-2.9 1.5-4.5 1.7-1.6 3.9-1.6 3.3 0 5.3 3.7 15 29.6 15.6 29.6 0.6 0 11.8-22.3l3.6-7.4q2-3.7 5.3-3.7 2.2 0 3.8 1.6 1.7 1.6 1.7 4.5zm33.2 43.6q0-3.6 0.5-14.6-2.4-4.9-6.6-11.8-4.2-7.1-6.7-11.5-2.4-4.5-2.4-6.6 0-2.2 1.2-3.6 1.4-1.5 3.4-1.5 2.1 0 3.2 0.7 1.2 0.7 2.4 2.8 1.3 2 2.4 4.4 4.6 9.5 8.6 16.2 4.3-7.5 7-13 2.7-5.6 3.9-7.6 1.2-2.1 2.3-2.8 1.1-0.7 3.1-0.7 2 0 3.3 1.6 1.3 1.5 1.3 3.5 0 1.9-2.5 6.5-2.6 4.5-6.9 11.6-4.2 6.9-6.6 11.9 0.5 10 0.5 14.5 0 8.1-5.7 8.1-5.7 0-5.7-8.1zm95.5-1.7l10.2-0.5q2.9 0 4.5 1.3 1.8 1.3 1.8 3.7 0 2.3-1.8 3.7-1.6 1.4-4.5 1.4l-10.2-0.5-11.4 0.5q-2.7 0-4.6-1.9-1.8-1.7-1.8-4.7l0.4-22.4-0.6-20.3q0-8.2 5.7-8.2 5.7 0 5.7 8.2l-0.6 20.3q0 3.8 0.6 19.2 3.9 0.2 6.6 0.2zm69.9-31.5q0-2.8-2.1-5-2.2-2.3-6.3-2.3-5.3 0-9 4.5-3.7 4.5-5.2 10.9 4.5 1 10 1 5.7 0 9.1-2.4 3.5-2.4 3.5-6.7zm9 31.5q0 3-5.6 6.6-5.5 3.6-11.8 3.6-6.3 0-10.9-2.1-4.5-2.3-7.4-6-6.2-7.8-6.9-18.3-5.1-2-5.1-6.2 0-2.1 1.3-3.4 1.4-1.3 3.5-1.3 0.6 0 1.3 0.2 2.6-9.3 8.9-15.3 6.3-6.1 14.7-6.1 8.5 0 14.1 4.9 5.6 4.8 5.6 11.5 0 6.7-3.4 11-6.4 7.8-19.7 7.8-4.4 0-10.3-1 1.1 6.3 4.7 10.6 3.6 4.3 8.3 4.3 5.2 0 11-3.6 2-1.1 3.6-1.1 1.7 0 2.9 1.1 1.2 1.1 1.2 2.8zm59.1-48.3q3 0 4.8 2.6 1.8 2.4 1.8 6.3 0 3.7-2.1 21 0 4.1 0.8 10.8 0.9 6.6 2.3 7.6 1.4 0.8 2 1.1 0.6 0.2 0.8 0.4 0.4 0.3 0.4 1.5 0 2.8-2 5-1.9 2.1-5.1 2.1-3.1 0-5.1-2.6-2-2.7-2.8-6.8-6.9 9.5-16.3 9.5-5 0-9-2.5-4-2.6-6.3-6.9-4.7-8.5-4.7-18.9 0-12.3 6.6-21.3 6.6-8.9 17.1-8.9 6.1 0 11.7 3.3 1.1-3.3 5.1-3.3zm-5 30.6l-0.4-16.5q-5.3-4.6-11.4-4.6-5.2 0-9.2 6-3.9 5.8-3.9 14.1 0 8.4 2.6 13.9 2.6 5.5 7.2 5.5 4.6 0 9.3-6.1 4.8-6.2 5.8-12.3zm46.1 0.4q0 0 0.6 19.2 0 8.1-5.6 8.1-6.3 0-6.3-9.5 0-6.8 2-20.4 0-3.5-0.9-10.7-0.8-7.2-0.8-10.5 0-3.3 1.5-5.1 1.5-1.8 4.1-1.8 2.7 0 4.2 2.1 1.5 2 1.5 5.6 2.3-3.6 5.7-5.7 3.6-2.2 8-2.2 4.4 0 7.2 2.3 2.8 2.2 2.8 4.9 0 2.6-1.7 4.3-1.6 1.6-3.7 1.6-2 0-4.2-1.7-2.1-1.8-2.8-1.8-2.6 0-6.5 7.2-3.9 7.1-5.1 14.1zm75.2 14.4l0.4-20.1q0-6.9-2.3-11.1-2.2-4.2-6.6-4.2-4.3 0-8.8 5.5-4.5 5.4-6.3 12.5l0.4 22q0 8.1-5.6 8.1-6.3 0-6.3-9.5 0-7.5 1.9-20.3 0-3.5-0.8-10.7-0.8-7.2-0.8-10.5 0-3.4 1.5-5.1 1.5-1.8 4.2-1.8 5.5 0 5.5 8.4 6.5-8.2 15.6-8.2 9.3 0 14.1 5.9 4.9 5.9 4.9 14.3l-0.4 19.2q0 7.1 0.9 8 0.5 0.5 1.5 0.7 1.1 0.3 1.8 0.7 0.6 0.5 0.6 1.6 0 3.1-2.1 5.3-2.1 2.2-5 2.2-4.7 0-6.5-3.2-1.8-3.3-1.8-9.7z"/>
		</g>
	</g>
</svg>